<?xml version="1.0" encoding="UTF-8"?>
<!DOCTYPE svg PUBLIC "-//W3C//DTD SVG 1.1//EN" "http://www.w3.org/Graphics/SVG/1.1/DTD/svg11.dtd">
<svg xmlns="http://www.w3.org/2000/svg" version="1.1" width="559px" height="446px" style="shape-rendering:geometricPrecision; text-rendering:geometricPrecision; image-rendering:optimizeQuality; fill-rule:evenodd; clip-rule:evenodd" xmlns:xlink="http://www.w3.org/1999/xlink">
<g><path style="opacity:0.082" fill="#a5c59b" d="M 358.5,37.5 C 360.262,38.2623 361.262,39.5956 361.5,41.5C 359.738,40.7377 358.738,39.4044 358.5,37.5 Z"/></g>
<g><path style="opacity:0.994" fill="#131513" d="M 358.5,37.5 C 358.738,39.4044 359.738,40.7377 361.5,41.5C 372.801,53.6381 383.968,65.9714 395,78.5C 399.365,89.1928 397.199,98.1928 388.5,105.5C 386.5,106.167 384.5,106.833 382.5,107.5C 382.5,108.5 382.5,109.5 382.5,110.5C 381.127,110.343 379.793,110.51 378.5,111C 376.645,114.252 374.312,117.086 371.5,119.5C 367.755,120.338 364.922,122.338 363,125.5C 361.35,122.894 359.85,122.894 358.5,125.5C 354.834,119.645 350.501,114.145 345.5,109C 344.5,108.333 343.5,108.333 342.5,109C 313.991,134.677 285.658,160.511 257.5,186.5C 262.019,191.184 266.352,196.018 270.5,201C 271.5,201.667 272.5,201.667 273.5,201C 285.521,189.681 297.855,178.847 310.5,168.5C 311.5,168.5 312.5,168.5 313.5,168.5C 312.199,170.672 311.199,173.005 310.5,175.5C 309.448,175.351 308.448,175.517 307.5,176C 305.837,178.16 304.17,180.327 302.5,182.5C 308.463,183.496 314.463,183.829 320.5,183.5C 322.144,183.714 323.644,183.38 325,182.5C 326.194,184.623 326.86,186.957 327,189.5C 327.667,221.833 327.667,254.167 327,286.5C 297.24,287.495 267.407,287.829 237.5,287.5C 237.833,262.158 237.5,236.825 236.5,211.5C 235.893,211.624 235.56,211.957 235.5,212.5C 233.621,213.341 231.621,213.675 229.5,213.5C 229.828,238.075 229.494,262.575 228.5,287C 198.595,287.828 168.762,287.662 139,286.5C 138.333,252.167 138.333,217.833 139,183.5C 161.333,182.982 183.833,182.982 206.5,183.5C 207.833,183.5 209.167,183.5 210.5,183.5C 210.326,181.139 209.993,178.806 209.5,176.5C 186.5,176.5 163.5,176.5 140.5,176.5C 140.715,174.821 140.048,173.821 138.5,173.5C 138.171,139.927 138.504,106.427 139.5,73C 169.346,72.3773 199.012,72.3773 228.5,73C 229.493,92.4239 229.826,111.924 229.5,131.5C 229.923,132.63 231.257,132.797 233.5,132C 235.167,129.667 236.833,127.333 238.5,125C 239.833,124.667 241.167,124.333 242.5,124C 243.763,121.614 245.597,119.781 248,118.5C 248.791,117.255 249.291,115.922 249.5,114.5C 253.771,111.899 257.437,108.566 260.5,104.5C 260.5,103.833 260.833,103.5 261.5,103.5C 265.741,99.7678 270.408,96.6011 275.5,94C 279.175,91.1725 281.842,87.6725 283.5,83.5C 287.1,81.5698 290.1,78.9031 292.5,75.5C 296.5,73.5 299.5,70.5 301.5,66.5C 302.167,66.1667 302.833,65.8333 303.5,65.5C 307.488,62.2151 311.821,59.3817 316.5,57C 323.187,49.3655 330.187,42.1988 337.5,35.5C 344.864,32.4421 351.864,33.1088 358.5,37.5 Z"/></g>
<g><path style="opacity:1" fill="#f6f6f6" d="M 339.5,40.5 C 345.351,39.674 350.684,40.8407 355.5,44C 367.035,55.8667 378.202,68.0334 389,80.5C 390.545,85.0466 390.879,89.7133 390,94.5C 387.5,98.3333 384.333,101.5 380.5,104C 377.692,104.92 375.525,104.087 374,101.5C 359.704,84.8684 345.037,68.5351 330,52.5C 329.333,51.5 329.333,50.5 330,49.5C 333.062,46.2678 336.229,43.2678 339.5,40.5 Z"/></g>
<g><path style="opacity:0.886" fill="#24411b" d="M 337.5,35.5 C 330.187,42.1988 323.187,49.3655 316.5,57C 311.821,59.3817 307.488,62.2151 303.5,65.5C 312.969,56.2 322.635,47.0333 332.5,38C 334.078,36.9055 335.745,36.0722 337.5,35.5 Z"/></g>
<g><path style="opacity:1" fill="#505150" d="M 322.5,55.5 C 326.503,55.9713 329.669,57.9713 332,61.5C 346.254,77.0601 360.254,92.7268 374,108.5C 374.667,109.167 374.667,109.833 374,110.5C 370.535,112.963 367.369,115.796 364.5,119C 362.299,119.825 360.466,119.325 359,117.5C 344.065,100.227 328.732,83.2271 313,66.5C 312.333,65.8333 312.333,65.1667 313,64.5C 316.667,61.9988 319.834,58.9988 322.5,55.5 Z"/></g>
<g><path style="opacity:1" fill="#f5f5f4" d="M 306.5,69.5 C 310.61,71.0776 314.11,73.7443 317,77.5C 318.751,79.212 319.418,81.212 319,83.5C 291.167,108.667 263.333,133.833 235.5,159C 234.5,159.667 233.5,159.667 232.5,159C 229.703,155.201 226.536,151.701 223,148.5C 222.333,147.833 222.333,147.167 223,146.5C 251.192,121.166 279.025,95.4992 306.5,69.5 Z"/></g>
<g><path style="opacity:0.31" fill="#40662d" d="M 301.5,66.5 C 299.5,70.5 296.5,73.5 292.5,75.5C 295.167,72.1667 298.167,69.1667 301.5,66.5 Z"/></g>
<g><path style="opacity:0.263" fill="#486d32" d="M 292.5,75.5 C 290.1,78.9031 287.1,81.5698 283.5,83.5C 285.9,80.0969 288.9,77.4302 292.5,75.5 Z"/></g>
<g><path style="opacity:1" fill="#b6b6b6" d="M 147.5,82.5 C 147.5,82.1667 147.5,81.8333 147.5,81.5C 172.167,81.5 196.833,81.5 221.5,81.5C 221.83,101.674 221.497,121.674 220.5,141.5C 220.5,121.833 220.5,102.167 220.5,82.5C 196.167,82.5 171.833,82.5 147.5,82.5 Z"/></g>
<g><path style="opacity:1" fill="#fcfcfc" d="M 147.5,82.5 C 171.833,82.5 196.167,82.5 220.5,82.5C 220.5,102.167 220.5,121.833 220.5,141.5C 219.167,142.933 217.667,144.267 216,145.5C 214.399,152.438 213.233,159.438 212.5,166.5C 191.065,168.472 169.398,169.139 147.5,168.5C 147.5,139.833 147.5,111.167 147.5,82.5 Z"/></g>
<g><path style="opacity:1" fill="#f8f8f8" d="M 322.5,86.5 C 323.552,86.3505 324.552,86.5172 325.5,87C 329.689,92.1867 334.189,97.02 339,101.5C 339.667,102.833 339.667,104.167 339,105.5C 311.167,130.667 283.333,155.833 255.5,181C 254.5,181.667 253.5,181.667 252.5,181C 248,175.833 243.5,170.667 239,165.5C 238.251,164.365 238.417,163.365 239.5,162.5C 267.213,137.116 294.879,111.783 322.5,86.5 Z"/></g>
<g><path style="opacity:0.961" fill="#233d1a" d="M 283.5,83.5 C 281.842,87.6725 279.175,91.1725 275.5,94C 270.408,96.6011 265.741,99.7678 261.5,103.5C 268.508,96.4925 275.842,89.8258 283.5,83.5 Z"/></g>
<g><path style="opacity:1" fill="#0f0f0f" d="M 163.5,106.5 C 166.394,106.042 168.894,106.709 171,108.5C 172.462,116.145 173.796,123.812 175,131.5C 176.995,123.519 178.995,115.519 181,107.5C 183.041,106.577 185.208,106.244 187.5,106.5C 189.33,113.819 191.163,121.153 193,128.5C 194.044,127.377 194.71,126.044 195,124.5C 196.031,118.517 196.864,112.517 197.5,106.5C 200.167,106.5 202.833,106.5 205.5,106.5C 203.008,117.806 200.508,129.139 198,140.5C 195.544,142.321 192.711,142.988 189.5,142.5C 188.757,134.531 186.924,126.865 184,119.5C 182.005,127.144 180.172,134.811 178.5,142.5C 175.833,142.5 173.167,142.5 170.5,142.5C 168.418,130.422 166.084,118.422 163.5,106.5 Z"/></g>
<g><path style="opacity:1" fill="#f6f6f6" d="M 358.5,125.5 C 357.325,125.281 356.325,125.614 355.5,126.5C 340.152,140.183 325.152,154.183 310.5,168.5C 297.855,178.847 285.521,189.681 273.5,201C 272.5,201.667 271.5,201.667 270.5,201C 266.352,196.018 262.019,191.184 257.5,186.5C 285.658,160.511 313.991,134.677 342.5,109C 343.5,108.333 344.5,108.333 345.5,109C 350.501,114.145 354.834,119.645 358.5,125.5 Z"/></g>
<g><path style="opacity:0.443" fill="#416a2d" d="M 260.5,104.5 C 257.437,108.566 253.771,111.899 249.5,114.5C 252.563,110.434 256.229,107.101 260.5,104.5 Z"/></g>
<g><path style="opacity:0.945" fill="#213c18" d="M 249.5,114.5 C 249.291,115.922 248.791,117.255 248,118.5C 245.597,119.781 243.763,121.614 242.5,124C 241.167,124.333 239.833,124.667 238.5,125C 236.833,127.333 235.167,129.667 233.5,132C 231.257,132.797 229.923,132.63 229.5,131.5C 236.186,125.811 242.853,120.144 249.5,114.5 Z"/></g>
<g><path style="opacity:0.999" fill="#1d231b" d="M 388.5,105.5 C 360.853,130.811 333.187,156.145 305.5,181.5C 310.651,182.167 315.651,182.834 320.5,183.5C 314.463,183.829 308.463,183.496 302.5,182.5C 304.17,180.327 305.837,178.16 307.5,176C 308.448,175.517 309.448,175.351 310.5,175.5C 311.199,173.005 312.199,170.672 313.5,168.5C 312.5,168.5 311.5,168.5 310.5,168.5C 325.152,154.183 340.152,140.183 355.5,126.5C 356.325,125.614 357.325,125.281 358.5,125.5C 359.85,122.894 361.35,122.894 363,125.5C 364.922,122.338 367.755,120.338 371.5,119.5C 374.312,117.086 376.645,114.252 378.5,111C 379.793,110.51 381.127,110.343 382.5,110.5C 382.5,109.5 382.5,108.5 382.5,107.5C 384.5,106.833 386.5,106.167 388.5,105.5 Z"/></g>
<g><path style="opacity:1" fill="#8c8c8c" d="M 147.5,81.5 C 147.5,81.8333 147.5,82.1667 147.5,82.5C 147.5,111.167 147.5,139.833 147.5,168.5C 169.398,169.139 191.065,168.472 212.5,166.5C 212.5,167.5 212.5,168.5 212.5,169.5C 190.5,169.5 168.5,169.5 146.5,169.5C 146.169,139.995 146.502,110.662 147.5,81.5 Z"/></g>
<g><path style="opacity:1" fill="#e9ebd4" d="M 219.5,153.5 C 235.696,169.044 251.03,185.711 265.5,203.5C 258.008,204.289 250.508,204.956 243,205.5C 239.448,203.637 236.115,201.304 233,198.5C 227.568,191.978 221.901,185.645 216,179.5C 216.369,170.752 217.535,162.085 219.5,153.5 Z"/></g>
<g><path style="opacity:0.024" fill="#4d564b" d="M 138.5,173.5 C 140.048,173.821 140.715,174.821 140.5,176.5C 163.5,176.5 186.5,176.5 209.5,176.5C 209.993,178.806 210.326,181.139 210.5,183.5C 209.167,183.5 207.833,183.5 206.5,183.5C 208.081,181.858 208.747,179.858 208.5,177.5C 185.498,177.667 162.498,177.5 139.5,177C 138.663,175.989 138.33,174.822 138.5,173.5 Z"/></g>
<g><path style="opacity:0.998" fill="#1c1d1c" d="M 42.5,182.5 C 72.0904,182.206 101.59,182.54 131,183.5C 132.118,201.801 132.618,220.135 132.5,238.5C 132.496,254.739 132.163,270.906 131.5,287C 101.262,287.828 71.0949,287.662 41,286.5C 40.3714,252.679 40.3714,218.679 41,184.5C 41.7172,183.956 42.2172,183.289 42.5,182.5 Z"/></g>
<g><path style="opacity:0.992" fill="#101210" d="M 334.5,286.5 C 335.026,252.003 335.693,217.669 336.5,183.5C 365.519,182.191 394.519,182.191 423.5,183.5C 424.239,209.001 424.906,234.501 425.5,260C 424.68,269.214 424.347,278.381 424.5,287.5C 394.329,287.831 364.329,287.498 334.5,286.5 Z"/></g>
<g><path style="opacity:1" fill="#161716" d="M 522.5,185.5 C 521.852,187.086 521.352,188.753 521,190.5C 520.171,222.405 520.338,254.238 521.5,286C 496.33,286.168 471.33,286.668 446.5,287.5C 441.57,287.803 436.737,287.469 432,286.5C 431.358,252.283 431.358,218.283 432,184.5C 432.689,183.643 433.522,182.977 434.5,182.5C 448.989,182.853 463.656,182.853 478.5,182.5C 492.5,182.667 506.5,182.833 520.5,183C 521.756,183.417 522.423,184.25 522.5,185.5 Z"/></g>
<g><path style="opacity:1" fill="#8d8d8d" d="M 206.5,197.5 C 206.5,195.833 206.5,194.167 206.5,192.5C 186.833,192.5 167.167,192.5 147.5,192.5C 147.5,221.167 147.5,249.833 147.5,278.5C 147.5,278.833 147.5,279.167 147.5,279.5C 146.502,250.338 146.169,221.005 146.5,191.5C 166.833,191.5 187.167,191.5 207.5,191.5C 207.795,193.735 207.461,195.735 206.5,197.5 Z"/></g>
<g><path style="opacity:1" fill="#a7a7a7" d="M 318.5,192.5 C 309.494,192.334 300.494,192.5 291.5,193C 289.559,195.454 287.225,197.287 284.5,198.5C 286.294,196.203 288.294,194.037 290.5,192C 300.009,191.176 309.343,191.342 318.5,192.5 Z"/></g>
<g><path style="opacity:1" fill="#fbfbfb" d="M 206.5,197.5 C 205.996,202.202 205.329,206.869 204.5,211.5C 203.596,212.209 203.263,213.209 203.5,214.5C 208.897,214.785 214.23,214.451 219.5,213.5C 220.5,235.156 220.833,256.823 220.5,278.5C 196.167,278.5 171.833,278.5 147.5,278.5C 147.5,249.833 147.5,221.167 147.5,192.5C 167.167,192.5 186.833,192.5 206.5,192.5C 206.5,194.167 206.5,195.833 206.5,197.5 Z"/></g>
<g><path style="opacity:1" fill="#fbfbfb" d="M 318.5,192.5 C 318.5,221.167 318.5,249.833 318.5,278.5C 294.167,278.5 269.833,278.5 245.5,278.5C 245.5,255.833 245.5,233.167 245.5,210.5C 254.177,210.237 262.843,209.737 271.5,209C 275.727,205.263 280.06,201.763 284.5,198.5C 287.225,197.287 289.559,195.454 291.5,193C 300.494,192.5 309.494,192.334 318.5,192.5 Z"/></g>
<g><path style="opacity:1" fill="#797a78" d="M 513.5,279.5 C 513.5,250.5 513.5,221.5 513.5,192.5C 489.167,192.5 464.833,192.5 440.5,192.5C 440.5,221.5 440.5,250.5 440.5,279.5C 439.502,250.338 439.169,221.005 439.5,191.5C 464.5,191.5 489.5,191.5 514.5,191.5C 514.831,221.005 514.498,250.338 513.5,279.5 Z"/></g>
<g><path style="opacity:1" fill="#fcfcfc" d="M 513.5,279.5 C 489.167,279.5 464.833,279.5 440.5,279.5C 440.5,250.5 440.5,221.5 440.5,192.5C 464.833,192.5 489.167,192.5 513.5,192.5C 513.5,221.5 513.5,250.5 513.5,279.5 Z"/></g>
<g><path style="opacity:1" fill="#808080" d="M 485.5,217.5 C 480.039,215.948 474.705,216.281 469.5,218.5C 471.759,216.245 474.592,215.245 478,215.5C 480.821,215.408 483.321,216.074 485.5,217.5 Z"/></g>
<g><path style="opacity:1" fill="#0e0e0e" d="M 278.5,216.5 C 285.304,215.822 290.804,218.155 295,223.5C 297.585,232.148 296.918,240.481 293,248.5C 286.766,254.008 279.933,254.841 272.5,251C 266.261,242.755 264.761,233.588 268,223.5C 270.709,219.791 274.209,217.457 278.5,216.5 Z"/></g>
<g><path style="opacity:1" fill="#161616" d="M 485.5,217.5 C 489.588,219.587 491.588,222.92 491.5,227.5C 488.833,227.5 486.167,227.5 483.5,227.5C 483.703,225.61 483.037,224.11 481.5,223C 478.469,222.505 475.469,222.671 472.5,223.5C 471.959,226.652 472.959,229.152 475.5,231C 481.895,231.71 487.062,234.544 491,239.5C 492.73,246.786 489.896,251.286 482.5,253C 475.551,254.572 469.718,252.739 465,247.5C 463.872,245.655 463.372,243.655 463.5,241.5C 466.167,241.5 468.833,241.5 471.5,241.5C 471.178,243.722 471.845,245.556 473.5,247C 476.167,247.667 478.833,247.667 481.5,247C 484.265,244.034 483.932,241.367 480.5,239C 474.998,237.84 470.164,235.34 466,231.5C 465.333,228.167 465.333,224.833 466,221.5C 467.039,220.29 468.206,219.29 469.5,218.5C 474.705,216.281 480.039,215.948 485.5,217.5 Z"/></g>
<g><path style="opacity:1" fill="#060606" d="M 171.5,217.5 C 177.509,217.334 183.509,217.501 189.5,218C 197.198,220.379 199.698,225.546 197,233.5C 195.286,235.043 193.786,236.71 192.5,238.5C 194.178,243.356 196.511,247.856 199.5,252C 196.833,252.667 194.167,252.667 191.5,252C 188.914,248.164 186.581,244.164 184.5,240C 182.527,239.505 180.527,239.338 178.5,239.5C 178.5,243.833 178.5,248.167 178.5,252.5C 176.167,252.5 173.833,252.5 171.5,252.5C 171.5,240.833 171.5,229.167 171.5,217.5 Z"/></g>
<g><path style="opacity:0.192" fill="#6a7260" d="M 237.5,287.5 C 236.883,287.389 236.383,287.056 236,286.5C 235.5,261.836 235.333,237.169 235.5,212.5C 235.56,211.957 235.893,211.624 236.5,211.5C 237.5,236.825 237.833,262.158 237.5,287.5 Z"/></g>
<g><path style="opacity:1" fill="#e8e8e8" d="M 178.5,222.5 C 182.793,221.97 186.627,222.97 190,225.5C 191.168,228.893 190.334,231.559 187.5,233.5C 184.572,234.484 181.572,234.817 178.5,234.5C 178.5,230.5 178.5,226.5 178.5,222.5 Z"/></g>
<g><path style="opacity:1" fill="#ececec" d="M 277.5,222.5 C 282.742,221.271 286.575,222.937 289,227.5C 289.829,232.533 289.662,237.533 288.5,242.5C 286.192,247.106 282.525,248.606 277.5,247C 272.177,238.69 272.177,230.523 277.5,222.5 Z"/></g>
<g><path style="opacity:0.779" fill="#364035" d="M 522.5,185.5 C 523.664,218.998 523.831,252.664 523,286.5C 497.574,287.495 472.074,287.828 446.5,287.5C 471.33,286.668 496.33,286.168 521.5,286C 520.338,254.238 520.171,222.405 521,190.5C 521.352,188.753 521.852,187.086 522.5,185.5 Z"/></g>
<g><path style="opacity:0.133" fill="#4a4a3f" d="M 336.5,183.5 C 335.693,217.669 335.026,252.003 334.5,286.5C 333.336,252.336 333.169,218.002 334,183.5C 334.977,182.226 335.811,182.226 336.5,183.5 Z"/></g>
<g><path style="opacity:1" fill="#bdbdbd" d="M 49.5,191.5 C 74.1667,191.5 98.8333,191.5 123.5,191.5C 123.5,220.833 123.5,250.167 123.5,279.5C 98.8333,279.5 74.1667,279.5 49.5,279.5C 49.5,250.167 49.5,220.833 49.5,191.5 Z"/></g>
<g><path style="opacity:1" fill="#fcfcfc" d="M 50.5,192.5 C 74.5,192.5 98.5,192.5 122.5,192.5C 122.5,221.167 122.5,249.833 122.5,278.5C 98.5,278.5 74.5,278.5 50.5,278.5C 50.5,249.833 50.5,221.167 50.5,192.5 Z"/></g>
<g><path style="opacity:1" fill="#7f7f7f" d="M 81.5,225.5 C 80.5931,231.106 80.2598,236.773 80.5,242.5C 79.3493,237.35 79.1826,232.016 80,226.5C 80.3826,225.944 80.8826,225.611 81.5,225.5 Z"/></g>
<g><path style="opacity:1" fill="#101010" d="M 93.5,217.5 C 98.7121,219.371 101.045,223.038 100.5,228.5C 98.5,228.5 96.5,228.5 94.5,228.5C 94.5479,225.708 93.2146,223.875 90.5,223C 88.1667,222.333 85.8333,222.333 83.5,223C 82.6195,223.708 81.9528,224.542 81.5,225.5C 80.8826,225.611 80.3826,225.944 80,226.5C 79.1826,232.016 79.3493,237.35 80.5,242.5C 82.6334,247.453 86.3001,248.786 91.5,246.5C 92.9501,245.15 93.6168,243.484 93.5,241.5C 96.1667,241.5 98.8333,241.5 101.5,241.5C 99.054,251.401 92.7206,255.235 82.5,253C 77.191,251.017 74.0243,247.184 73,241.5C 72.1253,234.659 72.792,227.993 75,221.5C 76.129,219.859 77.629,218.859 79.5,218.5C 84.0477,216.408 88.7143,216.075 93.5,217.5 Z"/></g>
<g><path style="opacity:1" fill="#777777" d="M 93.5,217.5 C 88.7143,216.075 84.0477,216.408 79.5,218.5C 81.3318,216.106 83.8318,215.106 87,215.5C 89.5437,215.336 91.7103,216.003 93.5,217.5 Z"/></g>
<g><path style="opacity:1" fill="#b5b5b5" d="M 204.5,211.5 C 204.791,212.649 205.624,213.316 207,213.5C 211.795,212.642 216.628,212.309 221.5,212.5C 221.5,234.833 221.5,257.167 221.5,279.5C 196.833,279.5 172.167,279.5 147.5,279.5C 147.5,279.167 147.5,278.833 147.5,278.5C 171.833,278.5 196.167,278.5 220.5,278.5C 220.833,256.823 220.5,235.156 219.5,213.5C 214.23,214.451 208.897,214.785 203.5,214.5C 203.263,213.209 203.596,212.209 204.5,211.5 Z"/></g>
<g><path style="opacity:1" fill="#b1b1b1" d="M 245.5,210.5 C 245.5,233.167 245.5,255.833 245.5,278.5C 269.833,278.5 294.167,278.5 318.5,278.5C 294.006,279.498 269.339,279.831 244.5,279.5C 244.169,256.327 244.502,233.327 245.5,210.5 Z"/></g>
<g><path style="opacity:1" fill="#c8c7c7" d="M 342.5,191.5 C 367.167,191.5 391.833,191.5 416.5,191.5C 416.5,220.833 416.5,250.167 416.5,279.5C 391.833,279.5 367.167,279.5 342.5,279.5C 342.5,250.167 342.5,220.833 342.5,191.5 Z"/></g>
<g><path style="opacity:1" fill="#fcfcfc" d="M 343.5,192.5 C 367.5,192.5 391.5,192.5 415.5,192.5C 415.5,221.167 415.5,249.833 415.5,278.5C 391.5,278.5 367.5,278.5 343.5,278.5C 343.5,249.833 343.5,221.167 343.5,192.5 Z"/></g>
<g><path style="opacity:1" fill="#111111" d="M 372.5,216.5 C 379.7,215.418 386.034,217.085 391.5,221.5C 392.348,223.409 392.682,225.409 392.5,227.5C 390.167,227.5 387.833,227.5 385.5,227.5C 385.065,223.842 382.899,222.175 379,222.5C 373.407,222.947 372.241,225.447 375.5,230C 381.13,231.565 386.297,234.065 391,237.5C 394.796,247.899 391.13,253.232 380,253.5C 371.351,253.795 366.517,249.795 365.5,241.5C 370.046,240.635 373.046,242.301 374.5,246.5C 378.27,248.024 381.77,247.691 385,245.5C 385.72,243.888 385.554,242.388 384.5,241C 380.121,238.144 375.454,235.811 370.5,234C 364.755,227.389 365.421,221.555 372.5,216.5 Z"/></g>
<g><path style="opacity:0.988" fill="#141813" d="M 139.5,293.5 C 169.174,293.167 198.841,293.5 228.5,294.5C 229.831,329.03 229.831,363.53 228.5,398C 198.595,398.828 168.762,398.662 139,397.5C 138.174,362.762 138.341,328.095 139.5,293.5 Z"/></g>
<g><path style="opacity:1" fill="#838284" d="M 147.5,301.5 C 147.5,330.5 147.5,359.5 147.5,388.5C 171.833,388.5 196.167,388.5 220.5,388.5C 220.5,359.5 220.5,330.5 220.5,301.5C 221.498,330.662 221.831,359.995 221.5,389.5C 196.5,389.5 171.5,389.5 146.5,389.5C 146.169,359.995 146.502,330.662 147.5,301.5 Z"/></g>
<g><path style="opacity:1" fill="#fdfdfd" d="M 147.5,301.5 C 171.833,301.5 196.167,301.5 220.5,301.5C 220.5,330.5 220.5,359.5 220.5,388.5C 196.167,388.5 171.833,388.5 147.5,388.5C 147.5,359.5 147.5,330.5 147.5,301.5 Z"/></g>
<g><path style="opacity:1" fill="#0e0e0e" d="M 171.5,327.5 C 193.579,325.064 201.745,334.397 196,355.5C 194.293,357.037 192.793,358.704 191.5,360.5C 184.984,362.269 178.317,362.936 171.5,362.5C 171.5,350.833 171.5,339.167 171.5,327.5 Z"/></g>
<g><path style="opacity:1" fill="#fafafa" d="M 178.5,333.5 C 187.267,332.435 191.267,336.268 190.5,345C 191.247,353.753 187.247,357.586 178.5,356.5C 178.5,348.833 178.5,341.167 178.5,333.5 Z"/></g>
<g><path style="opacity:1" fill="#494949" d="M 171.5,327.5 C 171.5,339.167 171.5,350.833 171.5,362.5C 178.317,362.936 184.984,362.269 191.5,360.5C 190.653,361.966 189.32,362.8 187.5,363C 181.843,363.499 176.176,363.666 170.5,363.5C 170.172,351.322 170.505,339.322 171.5,327.5 Z"/></g>
</svg>
